PathFileType	4	(X/Y/Z)	pose_F01_0-92.trc
DataRate	CameraRate	NumFrames	NumMarkers	Units	OrigDataRate	OrigDataStartFrame	OrigNumFrames
30	30	6	21	m	30	65	92
Frame#	Time	CHip			RHip			RKnee			RAnkle			RBigToe			RSmallToe			RHeel			LHip			LKnee			LAnkle			LBigToe			LSmallToe			LHeel			Neck			Nose			RShoulder			RElbow			RWrist			LShoulder			LElbow			LWrist			
		X1	Y1	Z1	X2	Y2	Z2	X3	Y3	Z3	X4	Y4	Z4	X5	Y5	Z5	X6	Y6	Z6	X7	Y7	Z7	X8	Y8	Z8	X9	Y9	Z9	X10	Y10	Z10	X11	Y11	Z11	X12	Y12	Z12	X13	Y13	Z13	X14	Y14	Z14	X15	Y15	Z15	X16	Y16	Z16	X17	Y17	Z17	X18	Y18	Z18	X19	Y19	Z19	X20	Y20	Z20	X21	Y21	Z21	
65	2.1666666666666665	-0.15680044216794697	1.8702112891525347	-0.39152685927094477	-0.1619641940696061	1.866842390654982	-0.338538383321206	-0.16941040156828366	1.7264287040576356	-0.3404654830525479													-0.1547769001424145	1.872494513949078	-0.4573689641193526	-0.1543864470593112	1.7361470402408423	-0.4786788781867016	-0.12641573404564746	1.5940521024141636	-0.5193056349357117	-0.15164430414282967	1.5586518262329627	-0.5530702717241457	-0.13774349141636028	1.5664858128579773	-0.5729206825552114	-0.11722740282550223	1.5842044985558985	-0.5056534657608558	-0.14479662870048185	2.0258061603597355	-0.3978182584844506	-0.17929166736984264	2.079507533883199	-0.40007008020851353	-0.14500470306828064	2.022464198653016	-0.32124664352403376	-2.2774011016888926	1.9200591182800646	2.1944664995561083	-0.17767350541094334	2.03391841698489	-0.34463307354394285	-0.14129947443549837	2.0296790026379994	-0.47618373025810923	-0.15391820884871624	1.9537758534912537	-0.4923167830812599	-0.19194619837732488	1.8800409665889	-0.47793241370275097
66	2.2	-0.15869004092162942	1.8702716293340813	-0.38939341773914293	-0.1656815102578284	1.8668425363508416	-0.3342109859697199	-0.1667038352485672	1.7276360939239008	-0.339148577938652													-0.15281215947053114	1.8751961081101587	-0.46004514139564184	-0.15466873600080974	1.7385260588168139	-0.47868501765555344	-0.12447099652802064	1.5944302333304285	-0.5214538501999875	-0.15162939652776186	1.55876693665522	-0.5529874831208306	-0.13775253824924125	1.566609179214638	-0.5728699671974038	-0.11634141825277966	1.5842326893397416	-0.5024101667191725	-0.1448518705270803	2.0258046042125217	-0.3979041967916602	-0.1765879618738403	2.078446298014424	-0.40782922356115703	-0.15057735941461367	2.0233486293714043	-0.3234085907685557	-0.1908747810600788	1.981480021058939	-0.3265963811230424	-0.18004115587588362	2.0355929746875243	-0.34881015526145925	-0.13939754752733888	2.0295346465563022	-0.47002534999684226	-0.15317336700380155	1.9521263875398227	-0.4803374276037285	-0.18731305772912116	1.885165964437678	-0.47125327588041543
67	2.2333333333333334	-0.15651853878581065	1.8700751675665597	-0.39140677164807863	-0.16348442921113554	1.8679541956588228	-0.33632360597232197	-0.16325815517389666	1.7280337702019888	-0.32911496142636754													-0.15155148664375157	1.8752023854541284	-0.456851055758128	-0.15253084264939665	1.7405017107784193	-0.481417453065741	-0.12675319405869542	1.5957952614924327	-0.518973174458982	-0.1507562137071464	1.5586580019072165	-0.5496402233491265	-0.13736737718160721	1.566457807720678	-0.568727047971371	-0.11808230170128094	1.5853730936169115	-0.500415426103708	-0.14482585782018803	2.0256902118459075	-0.39785853023329076	-0.1755039477908084	2.0815618631396453	-0.4138769965957725	-0.15156956991103435	2.023036134969376	-0.31857653045240325	-2.2936402537171787	1.9234251538355696	2.2258256868592885	-0.18165476263856564	2.028032333472055	-0.34259474210027896	-0.13546233290208065	2.0296498591408683	-0.47453608467401764	-0.14902022548981025	1.9533594794165128	-0.4848509405735031	-0.18263661081415775	1.8829062975495865	-0.4753842728895258
68	2.2666666666666666	-0.15642627530137	1.8712916586405528	-0.3914892956981339	-0.16538763545372728	1.8681604228399071	-0.33415537881761315	-0.16233131969935796	1.7263392149282495	-0.3252515795228837													-0.1505001756162006	1.873923265160403	-0.4532613324521342	-0.15259367018992603	1.7409715355886761	-0.48135109639400314	-0.1276634119151519	1.5987936327891819	-0.5226019077038735	-0.15093435901700758	1.5574205407357362	-0.5490665470223562	-0.13820196222963987	1.5663545108474912	-0.5719931772627104	-0.11904426316768982	1.5858589061493469	-0.503750126192071	-0.14482959543044982	2.0256931361188646	-0.39787051641778653	-0.17443212816690176	2.0827620889350946	-0.41060283036699274	-0.1525700588820175	2.023771792341281	-0.3217940766701283	-1.5936072292535868	1.940399815195188	1.3936431757253227	-0.18208537303032651	2.0295205268494554	-0.3385110092358485	-0.13540499138270956	2.0296943678578594	-0.4744252608755541	-0.14407843335652043	1.9546289269039143	-0.48623599909717086	-0.17701697788893092	1.885897378571836	-0.4737904366419907
69	2.3	-0.1575280024254041	1.869641899511687	-0.3859401042220086	-0.16719567144608932	1.867691773206941	-0.3319327504732114	-0.1614659383193093	1.7277800235226006	-0.32187959728274673													-0.15059321228510636	1.873460058624886	-0.4531639428317185	-0.1525057546054453	1.740461241495912	-0.48131654850687167	-0.1256988854289427	1.5989513607272432	-0.5248435928131047	-0.15080131141385295	1.559034686840122	-0.5496818989367634	-0.1382742007633423	1.566499587065404	-0.5719709395251341	-0.11912956079941417	1.5863000896528034	-0.5037674847434682	-0.14576601787975546	2.0268905251458125	-0.39317280596791243	-0.17355154949887264	2.0848971606632234	-0.41641568198033757	-0.15345725118155543	2.0233976611460265	-0.31632037357735093	-0.893574204789995	1.9573744765548065	0.5614606645913569	-0.18251598342208736	2.0310087202268563	-0.334427276371418	-0.13540787100894178	2.0297415959059566	-0.4743683664715808	-0.14426343754945015	1.9522913998400289	-0.48615544081020773	-0.17604834505152564	1.8827496101310162	-0.47869568747624075
70	2.3333333333333335	-0.15960279320628704	1.8685061204957516	-0.3833546847771786	-0.16924638150796836	1.8668940298334407	-0.32933763382084547	-0.16151740032833165	1.7277295749095196	-0.32173194518756604													-0.15269332763016752	1.8723294550958909	-0.45061437515798747	-0.1518692738470333	1.7398477904887129	-0.47788045585349576	-0.12534175199762596	1.5998834226195415	-0.5254564854220228	-0.15072050155654967	1.5588257706056599	-0.5496717875314647	-0.1377462694677451	1.5662714430824853	-0.5728268373087223	-0.11885907355404031	1.5875026922080018	-0.5044884920020132	-0.14577293985254686	2.0268878999741347	-0.3931347207044584	-0.17460999534483065	2.0846752084544247	-0.4196498484754039	-0.15346446765253377	2.02354557469525	-0.31628968634831	-0.19354118032640355	1.974349137914425	-0.2707218465426088	-0.18294659381384823	2.032496913604257	-0.3303435435069875	-0.13538127354600407	2.029737509125503	-0.4743393009854114	-0.1430771653771284	1.9537090186412385	-0.49162131940413795	-0.17362325372050186	1.88169728034052	-0.4808843492558872
